<svg xmlns="http://www.w3.org/2000/svg" viewBox="0 0 1200 630" width="1200" height="630">
  <defs>
    <radialGradient id="bg" cx="0.5" cy="0.3" r="0.9">
      <stop offset="0%"  stop-color="#ffe070"/>
      <stop offset="60%" stop-color="#fcc41c"/>
      <stop offset="100%" stop-color="#e59f0d"/>
    </radialGradient>
    <linearGradient id="stripe" x1="0" y1="0" x2="1" y2="0">
      <stop offset="0%"  stop-color="#ff6db5"/>
      <stop offset="25%" stop-color="#ff9454"/>
      <stop offset="50%" stop-color="#ffd84d"/>
      <stop offset="75%" stop-color="#5ec6ff"/>
      <stop offset="100%" stop-color="#7fd490"/>
    </linearGradient>
  </defs>

  <rect width="1200" height="630" fill="url(#bg)"/>

  <!-- bounce shapes -->
  <circle cx="130" cy="150" r="40" fill="#ff6db5" stroke="#2a1910" stroke-width="6"/>
  <circle cx="1060" cy="510" r="50" fill="#5ec6ff" stroke="#2a1910" stroke-width="6"/>
  <rect x="90" y="470" width="70" height="70" rx="16" fill="#7fd490" stroke="#2a1910" stroke-width="6" transform="rotate(-10 125 505)"/>
  <rect x="1030" y="110" width="70" height="70" rx="16" fill="#b48aff" stroke="#2a1910" stroke-width="6" transform="rotate(12 1065 145)"/>

  <!-- panda mascot -->
  <g transform="translate(220,130)">
    <!-- ears -->
    <circle cx="40" cy="40" r="36" fill="#a0663a" stroke="#2a1910" stroke-width="7"/>
    <circle cx="220" cy="40" r="36" fill="#a0663a" stroke="#2a1910" stroke-width="7"/>
    <circle cx="40" cy="40" r="16" fill="#fff0c8"/>
    <circle cx="220" cy="40" r="16" fill="#fff0c8"/>
    <!-- face -->
    <ellipse cx="130" cy="130" rx="115" ry="100" fill="#fff0c8" stroke="#2a1910" stroke-width="7"/>
    <!-- forehead stripes -->
    <rect x="122" y="60" width="6" height="20" rx="3" fill="#a0663a"/>
    <rect x="134" y="60" width="6" height="20" rx="3" fill="#a0663a"/>
    <!-- eyes -->
    <ellipse cx="90" cy="120" rx="16" ry="22" fill="#2a1910"/>
    <ellipse cx="170" cy="120" rx="16" ry="22" fill="#2a1910"/>
    <circle cx="95" cy="112" r="6" fill="#fff"/>
    <circle cx="175" cy="112" r="6" fill="#fff"/>
    <!-- blush -->
    <ellipse cx="60" cy="155" rx="15" ry="9" fill="#ff8ab0"/>
    <ellipse cx="200" cy="155" rx="15" ry="9" fill="#ff8ab0"/>
    <!-- mouth -->
    <path d="M 108 155 Q 130 180 152 155 Q 140 172 130 172 Q 120 172 108 155"
          fill="#2a1910" stroke="#2a1910" stroke-width="3" stroke-linejoin="round"/>
    <!-- tongue -->
    <path d="M 118 165 Q 130 174 142 165 Q 130 178 118 165" fill="#ff6db5"/>
  </g>

  <!-- MOJI STUDIOS title -->
  <g transform="translate(600, 410)">
    <text x="0" y="0" text-anchor="middle"
          font-family="'Fredoka','Inter',sans-serif" font-weight="700"
          font-size="150" letter-spacing="-4"
          fill="#ffd84d" stroke="#2a1910" stroke-width="10"
          paint-order="stroke">MOJI STUDIOS</text>
  </g>

  <!-- tagline -->
  <g transform="translate(600, 490)">
    <text x="0" y="0" text-anchor="middle"
          font-family="'Fredoka','Inter',sans-serif" font-weight="600"
          font-size="42" fill="#2a1910">Early 2000s, Reborn.</text>
  </g>

  <!-- url strip -->
  <g transform="translate(600, 545)">
    <text x="0" y="0" text-anchor="middle"
          font-family="'Inter',sans-serif" font-weight="600"
          font-size="22" letter-spacing="2"
          fill="#2a1910" opacity="0.75">MOJIWORLD  ·  BITMON  ·  MOJI-STUDIOS.COM</text>
  </g>

  <!-- rainbow bottom bar -->
  <rect x="0" y="618" width="1200" height="12" fill="url(#stripe)"/>
</svg>
